<svg width='750px' height="320px" viewBox="0 0 750 320" xmlns="http://www.w3.org/2000/svg">
    <g id="fox">
        <ellipse cx="195" cy="255" rx="50" ry="15" fill="gray"/>
        <circle cx="195" cy="155" r="100" fill="orange"/>
        <circle cx="185" cy="130" r="35" fill="white"/>
        <circle cx="240" cy="130" r="35" fill="white"/>
        <circle cx="185" cy="130" r="7" fill="black"/>
        <circle cx="220" cy="130" r="7" fill="black"/>
        <circle cx="210" cy="160" r="13" fill="black"/>
        <ellipse cx="185" cy="195" rx="13" ry="8" fill="red"/>
        <ellipse cx="60" cy="160" rx="60" ry="20" transform="rotate(16, 70, 170)" fill="orange"/>
        <polygon points="7,145 30,135 25,163" fill="white"/>
        <polygon points="120,90 130,40 180,80" fill="orange"/>
        <polygon points="190,55 210,30 240,70" fill="orange"/>
        <polygon points="130,76 133,50 150,65" fill="black"/>
        <polygon points="200,57 210,40 225,60" fill="black"/>
    </g>
    <g id="kolobok">
        <ellipse cx="500" cy="250" rx="50" ry="15" fill="gray"/>
        <circle cx="500" cy="150" r="100" fill="yellow"/>
        <circle cx="460" cy="130" r="35" fill="white"/>
        <circle cx="510" cy="130" r="35" fill="white"/>
        <circle cx="450" cy="130" r="7" fill="black"/>
        <circle cx="500" cy="130" r="7" fill="black"/>
        <ellipse cx="485" cy="195" rx="10" ry="18" fill="red"/>
    </g>
</svg>