<svg id="Capa_1" enable-background="new 0 0 512.017 512.017" height="20" viewBox="0 0 512.017 512.017" width="20" xmlns="http://www.w3.org/2000/svg"><g><path d="m507.623 4.402c-5.857-5.858-15.355-5.858-21.213 0l-22.394 22.393-10.786-10.786c-11.723-11.724-30.702-11.727-42.427 0l-341.393 341.393c-1.373 1.376 2.126-3.435-57.682 82.004-4.175 5.963-3.465 14.062 1.682 19.208l9.394 9.394-18.394 18.394c-9.477 9.476-2.637 25.606 10.606 25.606 3.839 0 7.678-1.464 10.606-4.394l18.394-18.394 9.394 9.394c5.163 5.164 13.265 5.842 19.208 1.682 83.865-58.705 80.154-56.059 81.099-56.863.904-.768-10.574 10.661 294.3-294.213l14.813 14.813c6.126 6.126 5.816 16.124-.678 21.855l-112.06 98.87c-6.212 5.481-6.805 14.96-1.324 21.172 5.454 6.181 14.93 6.831 21.172 1.324l112.062-98.873c19.436-17.158 20.376-47.226 2.04-65.562l-14.813-14.813 26.788-26.788c11.695-11.696 11.695-30.729-.001-42.425l-10.786-10.784 22.394-22.394c5.858-5.858 5.858-15.355-.001-21.213zm-441.898 464.101-22.203-22.203 38.531-55.043 38.715 38.715zm78.292-57.708-42.787-42.787 282.787-282.787 42.787 42.787zm304-303.999-42.787-42.787 26.787-26.787 42.787 42.787z"/></g></svg>